<svg xmlns="http://www.w3.org/2000/svg" xmlns:xlink="http://www.w3.org/1999/xlink" width="40" zoomAndPan="magnify" viewBox="0 0 30 30.000001" height="40" preserveAspectRatio="xMidYMid meet" version="1.0"><defs><clipPath id="027137d547"><path d="M 0.613281 0 L 29.515625 0 L 29.515625 29 L 0.613281 29 Z M 0.613281 0 " clip-rule="nonzero"/></clipPath></defs><g clip-path="url(#027137d547)"><path fill="#bfbdbc" d="M 0.835938 27.355469 L 3.226562 17.003906 C 3.320312 16.5625 3.699219 16.214844 4.171875 16.152344 L 17.546875 14.769531 C 17.925781 14.738281 17.925781 14.171875 17.546875 14.105469 L 4.171875 12.816406 C 3.699219 12.785156 3.320312 12.4375 3.226562 12 L 0.835938 1.675781 C 0.613281 0.792969 1.558594 0.0703125 2.378906 0.480469 L 28.53125 13.570312 C 29.316406 13.980469 29.316406 15.113281 28.53125 15.523438 L 2.378906 28.554688 C 1.558594 28.960938 0.613281 28.238281 0.835938 27.355469 Z M 0.835938 27.355469 " fill-opacity="1" fill-rule="nonzero"/></g></svg>